<?xml version="1.0" encoding="UTF-8" standalone="no"?>
<!-- Created with Inkscape (http://www.inkscape.org/) -->

<svg
   version="1.1"
   id="svg1"
   width="3413.4399"
   height="1400"
   viewBox="0 0 3413.4399 1400"
   sodipodi:docname="Logo 1-03 (1).jpg"
   inkscape:export-filename="..\Programming\MORPH\frontend\public\logo.svg"
   inkscape:export-xdpi="96"
   inkscape:export-ydpi="96"
   inkscape:version="0.0"
   xmlns:inkscape="http://www.inkscape.org/namespaces/inkscape"
   xmlns:sodipodi="http://sodipodi.sourceforge.net/DTD/sodipodi-0.dtd"
   xmlns="http://www.w3.org/2000/svg"
   xmlns:svg="http://www.w3.org/2000/svg">
  <defs
     id="defs1" />
  <sodipodi:namedview
     id="namedview1"
     pagecolor="#ff6c6c"
     bordercolor="#000000"
     borderopacity="0.25"
     inkscape:showpageshadow="2"
     inkscape:pageopacity="0.0"
     inkscape:pagecheckerboard="true"
     inkscape:deskcolor="#d1d1d1"
     inkscape:zoom="0.40327184"
     inkscape:cx="1910.6219"
     inkscape:cy="782.35069"
     inkscape:window-width="2560"
     inkscape:window-height="1334"
     inkscape:window-x="2549"
     inkscape:window-y="-11"
     inkscape:window-maximized="1"
     inkscape:current-layer="g1">
    <inkscape:page
       x="0"
       y="0"
       width="3413.4399"
       height="1400"
       id="page2"
       margin="0"
       bleed="0" />
  </sodipodi:namedview>
  <g
     inkscape:groupmode="layer"
     inkscape:label="Image"
     id="g1">
    <path
       style="fill:#ffffff;stroke-width:0.516928"
       d="m 1621.7853,487.0651 c -10.4521,-2.40159 -23.1287,-9.54409 -29.4912,-16.61648 -4.7243,-5.25149 -10.5412,-15.17675 -12.5733,-21.4535 -0.5767,-1.78164 -1.1837,-3.45796 -1.3488,-3.72515 -0.5988,-0.96875 -1.8269,0.16604 -5.4863,5.0698 -8.812,11.80798 -20.0712,20.04442 -33.6171,24.59162 -5.9929,2.01174 -10.7642,2.61153 -20.6106,2.59098 -7.7212,-0.0165 -9.7231,-0.19339 -13.6674,-1.20978 -26.3469,-6.78956 -45.1289,-26.82959 -49.6392,-52.96454 -1.014,-5.87505 -1.014,-15.44203 0,-21.31708 2.362,-13.68616 8.5115,-25.55879 18.3174,-35.36466 7.4952,-7.49519 15.3876,-12.36817 25.5159,-15.75401 19.8662,-6.6412 41.2989,-3.37593 58.33,8.88656 5.0821,3.659 12.8665,11.65659 16.0936,16.53391 3.4866,5.26939 7.2995,13.53378 9.0231,19.55659 1.8783,6.56352 2.5849,6.85576 5.963,2.46589 4.4634,-5.80074 12.9417,-12.82543 19.4923,-16.15061 3.6868,-1.87158 10.0672,-3.86971 15.8314,-4.95805 5.9191,-1.11759 16.1193,-0.7637 22.3164,0.77424 9.5955,2.38127 17.3037,6.54071 24.1863,13.05109 11.2815,10.67176 16.5966,21.42586 17.8733,36.16343 1.236,14.26909 -1.4305,24.66234 -9.3658,36.50537 -8.1469,12.15859 -22.8299,21.63524 -36.2075,23.36896 -4.8124,0.62368 -18.1508,0.59528 -20.9355,-0.0446 z m 13.1816,-21.57151 c 7.9131,-2.55271 15.2461,-8.70448 19.0181,-15.95432 3.0231,-5.81085 3.8768,-9.87351 3.6162,-17.2065 -0.317,-8.92012 -1.5125,-10.22811 -5.0153,-5.48668 -2.5578,3.46234 -4.2422,4.80776 -6.9236,5.52974 -5.7917,1.5596 -11.9954,-2.34079 -13.3563,-8.39735 -0.542,-2.41236 -0.1769,-5.65418 0.8665,-7.67048 1.4819,-2.86631 6.5191,-6.19524 9.3986,-6.21104 0.7931,-0.005 1.7849,-0.22476 2.204,-0.48971 1.9877,-1.25715 -4.9238,-5.54435 -11.7552,-7.29152 -7.462,-1.90843 -15.7131,-1.01806 -22.7987,2.46021 -5.1894,2.54737 -11.4222,8.66476 -14.1196,13.85824 -2.954,5.68783 -3.7464,8.99068 -3.7202,15.50783 0.024,4.81255 0.2408,6.32085 1.4405,9.81667 1.9,5.53566 4.4809,9.64933 8.6203,13.73873 3.8427,3.7964 9.8344,7.23724 14.7714,8.48283 4.3002,1.08485 13.3464,0.73497 17.7533,-0.68665 z m -94.3531,-18.63837 c 4.7507,-1.66971 8.4682,-4.10902 12.6785,-8.31931 5.6868,-5.68652 8.7316,-12.2057 9.537,-20.41867 0.3114,-3.17584 -0.2099,-8.95513 -1.0613,-11.7601 -0.4556,-1.5013 -2.7221,-1.15156 -3.35,0.51693 -0.2943,0.78186 -1.3934,2.31358 -2.4427,3.40383 -4.8205,5.00897 -10.223,5.29103 -15.3372,0.80069 -4.9059,-4.30735 -5.1386,-11.11316 -0.5379,-15.71873 1.6417,-1.64335 2.9195,-2.32466 6.0844,-3.24377 2.2033,-0.63992 4.0061,-1.38119 4.0061,-1.6473 0,-0.81521 -2.196,-2.61697 -4.8311,-3.96381 -8.6453,-4.41867 -22.4589,-4.33883 -31.0046,0.17924 -1.4715,0.77793 -4.6569,3.39995 -7.0788,5.82673 -7.1639,7.1784 -9.9908,13.86798 -9.9467,23.53866 0.043,9.12311 2.9925,16.0528 9.6903,22.75467 4.4559,4.45843 9.5307,7.48342 14.8205,8.83398 4.1231,1.05274 14.82,0.60661 18.7735,-0.78297 z"
       id="path17" />
    <path
       style="fill:#00aad4;stroke-width:0.516928"
       d="m 1522.9,444.96822 c -6.9517,-1.87107 -13.6917,-6.83625 -17.9672,-13.23569 -3.3823,-5.06236 -4.453,-8.31011 -4.7533,-14.41788 -0.4486,-9.12051 2.2347,-15.92259 8.8597,-22.45915 6.3254,-6.24133 12.9695,-9.07929 21.2497,-9.07698 4.0596,10e-4 10.2268,1.32971 13.0577,2.81294 1.2776,0.66945 1.2771,0.67035 -1.5233,2.25077 -6.3359,3.57579 -9.3887,11.53773 -6.692,17.45339 2.3231,5.09638 6.4592,8.0159 11.9085,8.4058 3.9429,0.2821 6.8528,-0.69514 10.3742,-3.48409 1.0845,-0.85891 2.1479,-1.56167 2.3632,-1.56167 0.6448,0 -0.1769,9.86247 -1.0771,12.92319 -2.746,9.33693 -11.7856,17.78493 -21.8105,20.38261 -3.8342,0.99355 -10.312,0.99667 -13.9896,0.007 z"
       id="path18" />
    <path
       style="fill:#00ccff;stroke-width:0.516928"
       d="m 1555.1015,611.88799 c -0.8528,-0.0995 -3.7606,-0.43479 -6.4615,-0.74524 -28.9353,-3.32584 -57.9541,-15.87384 -81.6748,-35.31687 -25.6964,-21.0627 -45.0765,-53.83166 -51.8592,-87.68696 -2.3519,-11.73952 -2.6776,-15.5083 -2.6557,-30.73514 0.024,-12.40133 0.1887,-15.53941 1.1856,-21.91423 6.7939,-43.39496 30.8091,-81.45801 66.5413,-105.46447 20.1389,-13.53008 42.739,-21.93781 67.6873,-25.18096 9.1476,-1.18913 27.5544,-1.18913 36.7018,0 24.8525,3.23069 46.7414,11.37182 66.9423,24.89773 9.5145,6.37069 14.6749,10.58834 22.9294,18.74018 23.3574,23.06783 37.2185,49.55591 43.7428,83.59227 2.1077,10.99542 2.2627,40.02894 0.2709,50.78516 -10.6556,57.54787 -48.2095,101.92712 -102.0942,120.64959 -7.2679,2.52523 -20.5955,5.80041 -27.9141,6.85972 -10.0787,1.45879 -27.1773,2.23787 -33.3419,1.51922 z m 22.5608,-65.34344 c 10.6005,-1.08163 19.8004,-3.68919 28.615,-8.1104 8.537,-4.2819 10.5972,-6.33265 10.5972,-10.54837 0,-2.41732 -1.7798,-5.68139 -3.8682,-7.09497 -2.6757,-1.81083 -5.4443,-1.34382 -12.6735,2.13761 -17.7476,8.54669 -34.1683,9.87803 -50.6591,4.10715 -11.5693,-4.04866 -23.924,-13.34543 -32.0244,-24.09799 -5.2429,-6.95939 -6.6748,-8.05653 -10.5153,-8.05653 -1.938,0 -2.6514,0.32047 -4.6703,2.09749 -5.3665,4.72383 -3.9412,9.53757 6.1953,20.92246 10.7839,12.11242 20.9641,19.39704 33.7777,24.17083 12.0405,4.48564 22.3141,5.79012 35.2256,4.47272 z m 71.705,-58.82917 c 6.054,-2.05216 14.4766,-6.24097 18.033,-8.96825 3.724,-2.85607 11.5268,-11.10716 14.1336,-14.94597 5.2168,-7.68174 8.0658,-16.30632 8.825,-26.71423 0.6861,-9.4054 0.047,-15.36078 -2.4531,-22.83826 -5.0707,-15.16955 -14.8063,-26.39124 -29.1602,-33.61183 -9.6118,-4.83504 -15.3276,-5.94341 -28.5934,-5.54454 -9.8966,0.29757 -12.4435,0.81427 -19.6306,3.98228 -7.0256,3.09697 -14.3794,8.24948 -20.0619,14.05661 l -4.9625,5.07104 -1.1561,-3.99954 c -2.2116,-7.65097 -6.1658,-15.3142 -11.7995,-22.86741 -7.459,-10.00027 -19.0764,-18.07348 -32.3528,-22.48271 -7.4782,-2.4836 -12.0893,-3.01178 -23.7383,-2.71912 -8.8644,0.22264 -10.4436,0.4003 -14.5924,1.6412 -14.3771,4.3001 -27.3837,13.30229 -36.2127,25.06374 -5.8735,7.82448 -10.937,19.43082 -12.0884,27.70884 -0.8174,5.87826 -0.6882,20.51199 0.2288,25.76426 1.237,7.09415 5.0474,16.09627 10.0974,23.85528 3.6351,5.58567 12.9584,14.83816 18.7254,18.58353 8.0957,5.25779 17.0587,8.89283 24.9867,10.13374 5.7743,0.90385 19.0738,0.78752 24.8322,-0.21721 15.2259,-2.6565 32.2089,-13.4418 41.5959,-26.41632 1.5344,-2.12093 2.9276,-3.86454 3.096,-3.87465 0.1674,-0.009 0.5703,0.8645 0.8936,1.94355 0.3234,1.07908 1.7212,4.27756 3.1068,7.10776 6.7788,13.84784 19.2738,24.91663 33.4879,29.66508 6.8769,2.2973 9.2255,2.57926 20.1016,2.41296 9.4752,-0.14481 9.9924,-0.20801 14.6589,-1.78987 z"
       id="path19" />
    <path
       style="fill:#00ccff;stroke-width:0.516928"
       d="m 1389.9431,502.8502 c -20.4941,-7.62578 -37.0035,-18.06063 -51.4379,-32.51153 -15.6586,-15.67672 -26.3638,-33.18721 -33.5055,-54.80606 -4.288,-12.97945 -5.98,-22.91404 -6.3943,-37.54069 -0.4288,-15.13753 0.7108,-25.83257 4.2344,-39.74003 3.8129,-15.05014 14.2131,-36.01871 24.3018,-48.99662 15.7813,-20.30105 38.7949,-36.79796 63.134,-45.25652 17.8941,-6.21873 35.4433,-8.46898 55.4234,-7.1066 10.4788,0.7145 17.7148,1.92565 26.3441,4.40942 24.3345,7.00425 43.8953,18.66907 61.9993,36.97274 l 6.8884,6.9646 -7.9054,1.61967 c -26.835,5.49784 -50.76,16.12858 -72.1101,32.04141 -8.2632,6.15881 -27.2464,25.12205 -33.3568,33.32196 -17.3839,23.32827 -29.7572,52.35418 -33.7091,79.07695 -3.0224,20.4385 -1.9226,46.58116 2.8368,67.43171 0.8403,3.68098 1.5276,6.76317 1.5276,6.8493 0,0.31049 -0.8887,0.0165 -8.2707,-2.72971 z"
       id="path20" />
    <path
       style="fill:#00ccff;stroke-width:0.516928"
       d="m 1280.096,477.27931 c -8.87,-0.86276 -22.5691,-4.60305 -33.253,-9.07927 -22.6565,-9.49216 -43.8996,-28.04718 -57.3729,-50.11249 -7.8276,-12.81918 -13.1627,-27.61074 -16.2106,-44.94303 -1.5809,-8.99134 -1.7113,-27.42062 -0.2554,-36.09571 3.5644,-21.23685 11.1834,-39.82297 22.7148,-55.41066 18.1497,-24.53422 43.1565,-40.97186 72.2292,-47.47828 11.1571,-2.49695 16.6696,-3.12763 27.3971,-3.13447 16.6986,-0.0118 30.7471,2.67485 46.6961,8.92655 5.9179,2.31966 6.0785,2.42327 4.9269,3.17921 -3.4531,2.26684 -12.812,9.92207 -18.162,14.85597 -15.2521,14.06555 -25.0089,27.19839 -34.477,46.406 -2.5226,5.11757 -5.558,11.97979 -6.745,15.24936 -8.8736,24.43769 -11.4946,52.28459 -7.4441,79.08998 3.6582,24.20827 15.5004,51.07779 31.8565,72.28065 2.2648,2.9362 4.0172,5.4394 3.8939,5.56268 -1.0687,1.06872 -26.8337,1.57511 -35.7945,0.70351 z"
       id="path21" />
    <path
       style="fill:#00ccff;stroke-width:0.516928"
       d="m 1148.141,490.21366 c -11.5302,-1.46059 -26.4165,-6.03954 -37.7429,-11.60959 -24.0339,-11.81921 -41.9208,-29.74963 -53.6364,-53.76675 -5.5077,-11.29077 -9.7445,-24.90323 -11.0895,-35.62857 -0.6824,-5.44303 -0.6682,-26.26613 0.024,-31.84408 1.0708,-8.65592 5.1967,-22.99062 9.0722,-31.51913 6.2085,-13.66298 12.8271,-23.14814 24.1218,-34.5695 17.3347,-17.52917 34.8695,-27.2247 59.5697,-32.93799 5.7268,-1.32471 7.2266,-1.45127 19.5384,-1.649 15.9419,-0.25606 29.3143,0.82228 29.3103,2.36357 -5e-4,0.20236 -1.9493,2.85747 -4.3305,5.90043 -13.8669,17.72092 -23.6461,38.72541 -28.8312,61.92642 -1.1687,5.2289 -1.2132,6.23258 -1.2132,27.39719 0,19.21921 0.1179,22.51948 0.9339,26.36331 6.2413,29.36551 19.0879,54.02343 38.6112,74.10969 7.4432,7.65799 14.12,13.31578 21.8445,18.511 l 4.7771,3.21292 -5.1691,2.42259 c -10.5947,4.96524 -23.4534,9.0162 -33.4883,10.55015 -6.3023,0.96342 -26.8907,1.45252 -32.2999,0.76734 z"
       id="path22" />
    <path
       style="fill:#00ccff;stroke-width:0.516928"
       d="m 1039.9828,558.438 c -11.7163,-0.83322 -27.2945,-5.30262 -39.5449,-11.34555 -23.14597,-11.41744 -40.50771,-28.73107 -51.9414,-51.79796 -17.03415,-34.3645 -15.42731,-75.21294 4.25541,-108.19291 12.48794,-20.92404 30.92444,-37.18505 52.63919,-46.42748 7.6984,-3.27669 24.7703,-8.32596 24.7703,-7.3262 0,0.1717 -0.7069,3.11192 -1.571,6.53392 -2.3981,9.49898 -3.1038,15.17092 -3.4316,27.57649 -0.4941,18.70969 0.8526,31.05378 4.8174,44.15485 13.8523,45.77187 47.8124,80.03087 92.7151,93.53149 6.0634,1.82304 16.1127,4.17918 18.0926,4.24204 3.4684,0.11014 3.4316,0.47221 -0.575,5.67661 -7.4538,9.6819 -18.4929,19.5843 -29.6655,26.61065 -14.1985,8.92941 -33.3638,15.27043 -50.6588,16.76089 -6.8174,0.58755 -11.6735,0.5883 -19.9018,0.002 z"
       id="path23" />
    <path
       style="fill:#00ccff;stroke-width:0.516928"
       d="m 967.87144,679.36736 c -1.70589,-0.2463 -4.32286,-0.69967 -5.81555,-1.00747 -2.58678,-0.53347 -2.7139,-0.63663 -2.71555,-2.20304 0,-8.01686 -2.4691,-36.05291 -4.15848,-47.39149 -7.3922,-49.60928 -26.31313,-88.17454 -58.5602,-119.35959 l -2.35306,-2.27542 1.90306,-2.37693 c 6.27993,-7.84441 15.96481,-17.18058 22.20182,-21.40283 l 2.90588,-1.96729 2.44905,7.08737 c 3.24999,9.40565 9.6738,22.26295 15.37661,30.77573 20.55348,30.68175 51.96352,51.23834 88.47168,57.90089 4.6243,0.84391 8.8379,1.14202 18.9712,1.34209 17.1551,0.33875 23.968,-0.35561 38.9246,-3.96708 6.5769,-1.58807 6.367,-1.66415 5.9672,2.16258 -2.5354,24.2722 -9.4688,43.10263 -22.1271,60.09287 -17.3744,23.32113 -45.5717,39.46983 -74.41129,42.61588 -5.85587,0.63882 -22.53578,0.6226 -27.02987,-0.0262 z"
       id="path24" />
    <path
       style="fill:#00ccff;stroke-width:1.03386"
       d="m 959.86628,774.06422 c -0.76038,-7.2378 -0.30543,-73.76697 0.50967,-74.54569 0.28443,-0.27161 5.16932,-0.0516 10.85562,0.48853 11.86695,1.12762 29.41473,-0.20094 42.14773,-3.19088 4.417,-1.03719 8.2757,-1.48969 8.5748,-1.00557 1.0924,1.76743 -0.9227,17.18501 -3.3644,25.74331 -6.8278,23.931 -24.66338,44.6381 -47.16449,54.7581 -11.32521,5.0939 -10.77639,5.2005 -11.55893,-2.2478 z"
       id="path25" />
    <path
       style="fill:#ffffff;stroke-width:2.06771"
       d="m 3115.3962,982.08552 -7.0668,-6.7201 -1.3445,-33.0833 c -0.7394,-18.1958 -1.4446,-62.8584 -1.567,-99.2502 -0.1227,-36.3917 -0.8231,-92.6851 -1.5576,-125.0965 l -1.3351,-58.92977 -7.4346,-15.50783 c -8.8019,-18.3603 -20.5929,-30.80123 -36.6811,-38.70302 -11.2315,-5.51654 -12.9877,-5.75279 -42.7637,-5.75279 -30.8351,0 -31.1464,0.0467 -44.673,6.70203 -17.012,8.37007 -30.944,22.93489 -39.6275,41.4274 l -6.528,13.90192 -1.4423,51.69276 c -0.7929,28.4311 -1.5167,98.7402 -1.6082,156.2423 l -0.1651,104.5495 -6.3382,6.0731 -6.3382,6.0731 h -72.0981 -72.0982 l -6.6091,-6.2033 -6.6092,-6.203 1.1882,-334.96928 1.188,-334.96928 6.5341,-5.8501 6.5342,-5.85008 70.6031,0.77521 c 38.8317,0.42637 72.0189,1.44856 73.7493,2.27153 8.9304,4.24746 9.0217,5.32548 10.6038,125.18326 0.8309,62.95417 1.9669,114.91833 2.5245,115.4759 0.5578,0.55762 7.8245,-4.92262 16.1483,-12.17831 8.324,-7.25566 19.3219,-16.06189 24.4393,-19.56935 63.5092,-43.52784 162.9936,-44.4651 225.3807,-2.12337 13.7327,9.32038 36.4138,31.68142 46.6975,46.03878 12.6884,17.71443 22.2733,39.07866 30.994,69.08484 l 7.512,25.84639 -1.0634,167.43456 -1.0635,167.4349 -6.4198,5.736 -6.42,5.7363 h -69.0885 -69.0884 z"
       id="path26" />
    <path
       style="fill:#000000;stroke-width:0.731047"
       d="m 1561.0013,544.60802 c -11.0686,-1.55509 -22.1497,-5.61684 -32.0473,-11.74685 -11.3679,-7.04045 -26.086,-23.06191 -27.1372,-29.54038 -0.5432,-3.34728 2.2127,-6.23138 5.9547,-6.23138 2.3226,0 2.9542,0.47585 6.0644,4.56905 5.8874,7.74856 14.1556,15.8483 20.4829,20.066 12.3724,8.24712 22.1462,10.85251 38.4765,10.2565 11.816,-0.43125 15.5031,-1.28676 26.1311,-6.06338 9.9434,-4.4689 11.6868,-4.7318 14.1014,-2.12629 3.8,4.10013 2.0618,7.90278 -5.3073,11.61204 -14.6938,7.39595 -33.3837,11.07827 -46.7192,9.20469 z"
       id="path27" />
    <path
       style="fill:#00222b;stroke-width:1.46209"
       d="m 1258.1515,993.19602 c -31.3808,-4.5141 -59.2213,-12.966 -86.9946,-26.4093 -22.6542,-10.9655 -34.4713,-19.5811 -54.2508,-39.5522 -22.4822,-22.7005 -36.7175,-46.0643 -47.197,-77.4628 -9.9403,-29.7839 -12.2242,-50.3675 -14.5549,-131.1772 -0.6667,-23.12042 -1.6759,-42.50083 -2.2427,-43.06762 -1.453,-1.45294 -11.1334,4.02027 -13.3995,7.57604 -1.0384,1.6291 -2.3533,8.88346 -2.9224,16.12082 -2.5375,32.28076 -15.5704,59.07956 -37.12603,76.34116 -7.63394,6.1131 -27.8603,17.0935 -37.99541,20.6265 -3.23183,1.1267 -4.529,2.5241 -4.58253,4.9373 -0.0401,1.8512 -0.61745,40.6586 -1.28066,86.2387 -1.19339,82.0349 -1.23844,82.9259 -4.45258,88.1266 -6.49927,10.516 -4.88183,10.2999 -77.14128,10.2999 h -64.67292 l -5.46649,-5.4662 -5.4665,-5.4663 -1.11815,-77.8731 c -2.29009,-159.48 -4.08537,-237.40147 -5.65164,-245.28258 -3.18654,-16.03533 -18.66339,-37.85531 -32.67537,-46.06679 -14.99665,-8.78863 -50.73853,-11.55695 -67.11254,-5.19803 -18.03721,7.00481 -36.6006,25.59419 -43.41991,43.4803 -4.71862,12.37703 -5.4014,28.66576 -7.26861,173.4393 -0.90448,70.1222 -2.21108,134.6647 -2.90377,143.4279 -1.76485,22.3242 -2.36886,22.8683 -27.3643,24.6482 -10.29738,0.7333 -39.47276,1.0519 -64.83401,0.7083 -50.73263,-0.6877 -51.39466,-0.7993 -58.55218,-9.8545 l -4.04504,-5.1174 -0.99787,-156.4439 -0.99788,-156.44396 -3.59079,-9.12179 c -10.13134,-25.73544 -24.91974,-41.1941 -46.5166,-48.62448 -9.84974,-3.38883 -34.76382,-4.05902 -47.83005,-1.28664 -23.40064,4.96507 -44.70718,27.00232 -51.42107,53.18453 -2.89599,11.29379 -5.29409,118.53614 -5.30164,237.10044 v 83.5804 l -6.55587,5.7707 c -4.87475,4.2908 -8.3014,6.0099 -13.36294,6.7038 -9.71718,1.3318 -112.46641,0.9882 -120.93997,-0.4048 -5.43512,-0.8931 -8.41412,-2.4999 -12.83887,-6.9247 l -5.76154,-5.7615 0.0684,-86.5738 c 0.0967,-123.7935 2.8691,-387.56102 4.13537,-393.45629 0.62287,-2.89942 2.78254,-6.26274 5.16366,-8.04151 3.95589,-2.95525 5.92593,-3.07206 58.85667,-3.48982 58.08709,-0.45842 68.91371,0.37511 74.63067,5.74581 3.46532,3.25562 5.5922,11.30975 7.09078,26.85244 1.72665,17.9074 2.38938,21.20036 4.26673,21.20036 1.03585,0 8.39738,-5.62076 16.35892,-12.49055 26.74095,-23.07427 49.38947,-36.48027 76.61415,-45.34899 11.737,-3.82341 14.2627,-4.08424 45.43383,-4.6919 46.22109,-0.90106 59.2319,1.59853 91.2719,17.53492 24.4879,12.17999 34.25108,20.96044 53.51092,48.12455 5.62216,7.92939 11.05068,14.41708 12.06365,14.41708 1.01297,0 9.96412,-8.30004 19.89121,-18.44454 22.23012,-22.71642 36.4447,-33.39761 59.22247,-44.50102 28.75793,-14.01866 51.57343,-18.43337 87.78464,-16.9859 28.27704,1.13031 44.42392,4.58737 66.16843,14.16666 23.39828,10.30799 27.32327,11.38416 31.69661,8.69089 5.93489,-3.65484 37.08408,-30.69998 37.94611,-32.94645 0.44929,-1.17038 1.53184,-9.5216 2.40565,-18.55827 2.13443,-22.0705 6.15046,-38.50355 12.90421,-52.80277 15.8042,-33.46143 47.57321,-59.54369 85.73793,-70.39088 18.328,-5.20913 21.6926,-7.38108 32.39,-20.90746 19.7259,-24.94275 36.7598,-38.65429 59.4182,-47.82898 23.5672,-9.54262 48.9242,-11.81707 79.1904,-7.10316 l 15.1001,2.3518 11.2205,-6.81134 c 11.9061,-7.22743 28.4731,-14.90116 41.7329,-19.33061 6.7132,-2.24247 12.6304,-2.67513 35.8214,-2.61926 30.9296,0.0745 32.8242,0.42323 56.6696,10.4307 l 15.7311,6.60206 18.6283,-5.27831 c 23.6664,-6.70592 39.3649,-8.69773 58.7392,-7.45276 39.856,2.56117 71.8665,18.31532 103.7138,51.04355 l 12.2365,12.57515 h 14.4467 c 11.0193,0 14.4464,-0.45965 14.4464,-1.93742 0,-1.06561 -1.3509,-9.45436 -3.0023,-18.64169 -3.1307,-17.4183 -8.9422,-36.62489 -14.7795,-48.84516 l -3.4184,-7.15644 -10.308,-1.72856 c -18.5945,-3.11813 -24.0546,-7.90314 -24.0456,-21.07284 0,-10.75501 3.537,-16.46292 12.2353,-19.78482 9.1714,-3.50256 15.6547,-2.02585 23.7117,5.40076 l 6.4481,5.94371 v 12.32173 c 0,10.55171 0.6524,13.83291 4.5415,22.84175 8.0045,18.54242 12.874,34.5878 16.8193,55.42059 3.1535,16.65313 4.412,20.69012 6.9618,22.3337 5.0905,3.28139 55.1965,24.14654 57.9856,24.14654 1.414,0 9.2852,-7.07286 17.4917,-15.7175 19.1278,-20.14898 30.9266,-30.47303 48.5357,-42.46908 12.0248,-8.19172 14.5274,-10.59275 16.5436,-15.87202 1.3064,-3.42113 4.6585,-8.22472 7.4488,-10.67464 9.0175,-7.9176 25.1099,-5.47687 31.3483,4.75463 5.5726,9.13943 2.3224,23.57955 -6.5217,28.97251 -6.0674,3.69999 -14.4365,3.41263 -24.8091,-0.85186 l -8.6092,-3.5395 -8.2809,4.18009 c -10.8325,5.46821 -21.6926,14.04361 -35.0817,27.70156 -14.1735,14.45765 -23.4907,27.18697 -23.4839,32.08368 0,2.50613 3.359,8.21875 9.5672,16.28771 35.8916,46.64946 43.3959,64.9074 47.4546,115.45751 0.9085,11.31501 2.2799,20.1223 3.2238,20.70577 0.9038,0.55844 9.2643,1.42924 18.5794,1.93506 67.3312,3.65624 69.5816,4.03376 73.9064,12.39687 1.7285,3.34278 6.503,38.96508 6.6269,49.44599 0,0.20094 1.1559,0.33405 2.5632,0.29556 1.407,-0.0384 11.1117,-6.94502 21.5657,-15.34788 13.4398,-10.80286 23.9322,-17.80407 35.8214,-23.90231 29.022,-14.88623 44.3324,-18.10782 98.9364,-20.818 32.5634,-1.61622 34.087,-1.57044 39.3938,1.18351 12.3302,6.39885 13.3346,12.30584 13.9346,81.95466 l 0.3934,45.66244 -4.321,4.54477 c -8.0752,8.49297 -8.587,8.58184 -58.7411,10.1966 -25.5555,0.82278 -55.2368,2.05122 -65.9582,2.72985 -18.9292,1.19815 -19.8611,1.41579 -32.166,7.51191 -22.6676,11.22989 -37.4242,30.60491 -41.0951,53.9575 -0.8158,5.18942 -2.1408,62.43036 -2.9446,127.20216 -0.8035,64.7717 -1.7981,126.9173 -2.2097,138.1014 -1.1674,31.7172 -0.8422,31.4938 -48.2439,33.1202 -18.5264,0.6356 -48.2803,1.3158 -66.1199,1.5113 l -32.4355,0.3559 -5.1712,-3.9443 c -2.8441,-2.1693 -6.7639,-6.0634 -8.7104,-8.6537 l -3.5396,-4.7097 -0.9162,-177.6443 c -0.5041,-97.70433 -1.3017,-182.7433 -1.7724,-188.97548 -0.6529,-8.6436 -1.3691,-11.33121 -3.0199,-11.33121 -1.1898,0 -10.8261,4.54435 -21.4136,10.09853 -22.7839,11.95253 -36.1076,16.54731 -63.8474,22.01823 -11.3165,2.23186 -20.9955,4.47808 -21.5089,4.99164 -0.5137,0.51354 -0.057,5.69755 1.013,11.52004 1.3988,7.60549 2.1157,31.73589 2.5466,85.69835 0.6791,85.0339 0.7632,84.099 -10.6688,118.5019 -7.9424,23.9018 -17.279,43.9584 -26.4957,56.9178 -8.8898,12.5002 -33.1652,36.7933 -47.2291,47.2635 -26.8537,19.9922 -63.4526,34.4143 -105.2706,41.4822 -19.4993,3.2958 -101.7618,4.3005 -121.3537,1.4818 z m 85.1648,-114.2338 c 9.879,-2.3892 18.6634,-6.621 26.4285,-12.7323 8.4764,-6.6712 19.2214,-23.078 24.2926,-37.0935 8.4339,-23.3082 9.129,-31.682 8.5818,-103.3954 l -0.4922,-64.53167 -4.8017,-13.81668 c -6.5997,-18.99167 -12.6638,-29.82347 -22.7237,-40.59035 -9.5613,-10.23311 -21.6065,-17.032 -34.407,-19.42096 -10.5547,-1.96983 -43.4484,-1.86959 -53.0949,0.16179 -27.1662,5.72079 -48.6404,29.51609 -58.5639,64.89361 -3.1906,11.37442 -3.2807,13.61062 -3.2694,81.14616 0,67.7592 0.092,69.7519 3.3585,81.8771 10.8337,40.2303 34.3869,62.9928 68.0099,65.7274 16.6446,1.3538 35.6226,0.4491 46.6815,-2.2252 z m -370.89888,-97.9995 c 14.52331,-6.0681 31.06218,-20.7974 41.25128,-36.7374 6.8571,-10.7277 10.1342,-22.6041 11.1509,-40.41372 l 0.7399,-12.95725 -9.0785,0.8546 c -4.9932,0.47002 -19.27663,1.25375 -31.74098,1.74158 -12.46435,0.48785 -23.81384,1.20832 -25.22091,1.60103 -2.36391,0.65969 -2.55872,4.04477 -2.55872,44.47826 v 43.7643 h 4.93867 c 2.7165,0 7.44974,-1.0491 10.51836,-2.3314 z m 38.64048,-100.82843 c 5.2268,-1.22768 15.0167,-4.89661 21.7549,-8.15316 21.3506,-10.31874 47.2451,-38.51568 55.8078,-60.77001 2.4057,-6.25205 3.4479,-12.71868 3.9597,-24.56851 l 0.6948,-16.08304 -33.4966,0.51729 c -30.5867,0.47233 -34.3801,0.25302 -43.6673,-2.52448 -22.58252,-6.75373 -43.58576,-19.50704 -58.3001,-35.40031 -9.92167,-10.71662 -15.32826,-18.71978 -26.09096,-38.62133 -5.84126,-10.80155 -8.74031,-14.74387 -11.09785,-15.0916 -6.8271,-1.00696 -27.99402,19.15065 -27.99402,26.65921 0,3.21985 4.42971,10.51716 12.50397,20.59845 8.14055,10.16426 19.07589,27.35452 25.32233,39.80623 11.78959,23.50174 17.65396,46.13535 22.15395,85.50469 1.54669,13.53032 3.5106,25.90589 4.36437,27.50127 1.44103,2.69272 3.09504,2.89914 23.06691,2.87909 14.09454,-0.0141 24.7919,-0.79143 31.0181,-2.25379 z m 571.8586,-66.35237 c 21.4236,-1.46585 36.8056,-5.61944 54.5503,-14.73015 39.9327,-20.50258 67.234,-53.42061 80.7449,-97.35619 3.8389,-12.48393 4.003,-14.32149 4.0365,-45.17925 0.033,-31.36807 -0.066,-32.4562 -4.0023,-43.86277 -20.2476,-58.66037 -66.5142,-100.25173 -122.3509,-109.98727 -18.1034,-3.15645 -55.3793,-1.87174 -70.0299,2.41356 -44.1195,12.90498 -74.1354,35.79111 -96.9816,73.94555 -7.129,11.90563 -15.1478,31.76446 -17.082,42.30372 -2.5656,13.9781 -2.0668,68.88008 0.7106,78.23231 12.736,42.88742 45.0237,80.85776 86.1537,101.31727 16.4795,8.1975 29.008,11.68744 45.995,12.81244 8.4771,0.56139 16.3999,1.09563 17.606,1.18717 1.2062,0.0915 10.4986,-0.40182 20.6497,-1.09639 z m -491.156,-58.07728 c 15.6499,-6.27199 34.2199,-19.05358 45.7043,-31.45767 12.545,-13.54974 12.3778,-15.16726 -2.129,-20.60439 -39.3643,-14.7535 -48.1185,-19.73419 -65.622,-37.33593 -12.0629,-12.13032 -19.9983,-23.21924 -27.3931,-38.27856 -9.1393,-18.61233 -10.0627,-23.91297 -10.0627,-57.77523 0,-16.88717 0.4772,-32.84226 1.0602,-35.45574 1.0509,-4.71119 1.0127,-4.75181 -4.4776,-4.75181 -6.0816,0 -26.5836,6.48975 -36.5256,11.56181 -7.49219,3.82223 -27.31973,22.39304 -36.15767,33.86568 -8.41036,10.9177 -15.98863,25.08749 -18.95348,35.43911 -2.00589,7.00366 -2.33655,13.67005 -1.88561,38.01442 0.51674,27.89522 0.75684,30.01752 4.35918,38.52816 11.75233,27.76378 35.39872,52.65293 61.73118,64.97547 16.8247,7.87323 20.9679,8.53047 51.319,8.14108 27.2378,-0.34946 27.9989,-0.44436 39.0329,-4.8664 z m 310.5929,-49.84266 c -2.5342,-8.73533 -4.1264,-34.14874 -3.5283,-56.31471 0.6351,-23.5404 0.9863,-26.0995 5.3413,-38.92472 15.744,-46.36739 45.4616,-81.95539 84.9613,-101.74505 10.9002,-5.461 18.2457,-8.40606 47.918,-19.21183 8.5155,-3.10105 8.1035,-6.27781 -2.1059,-16.24556 -17.0839,-16.67913 -34.3089,-27.14759 -57.4744,-34.92969 -11.9683,-4.0206 -13.4818,-4.17562 -40.9385,-4.19357 -31.1848,-0.0212 -37.0287,0.89514 -55.6383,8.71655 -36.193,15.21159 -64.7121,45.56249 -79.7182,84.83876 -3.6219,9.48021 -3.9971,12.60581 -5.0886,42.4007 l -1.1783,32.16603 7.1912,18.27618 c 8.537,21.69708 15.7953,33.27924 30.5282,48.71594 20.7714,21.76333 48.7181,39.00962 63.2126,39.00962 6.2226,0 7.1542,-0.36568 6.5179,-2.55865 z m -209.9088,-15.17524 c 14.9665,-3.77534 27.4155,-9.08509 28.6122,-12.20359 0.6122,-1.59533 -4.4536,-7.79276 -16.492,-20.17621 -34.4296,-35.41641 -46.0135,-61.24532 -45.9819,-102.52687 0.024,-32.13839 5.2205,-50.04049 23.0636,-79.46622 13.7372,-22.65435 14.8094,-21.57987 -21.4551,-21.50183 l -29.973,0.0644 -11.8606,4.71576 c -33.3183,13.24749 -61.293,43.68785 -72.1361,78.49453 -4.0019,12.84574 -5.595,41.93478 -3.1505,57.52358 6.2755,40.01955 37.6398,77.75288 76.1948,91.6677 20.1613,7.27635 51.9718,8.75806 73.1786,3.40865 z m 125.3933,-14.10043 c 0.2594,-1.82791 -1.1232,-6.10453 -3.0722,-9.5036 -1.9491,-3.39905 -6.0073,-10.45671 -9.0181,-15.6837 -8.7731,-15.23071 -16.8743,-35.60518 -19.3297,-48.61512 -3.562,-18.87291 -2.0854,-53.35663 3.0115,-70.33085 8.126,-27.06065 20.4078,-46.68594 45.0473,-71.9808 8.6825,-8.91367 15.7868,-17.28907 15.7868,-18.61197 0,-2.94369 -8.1625,-7.25684 -19.8016,-10.46348 -12.8924,-3.55197 -43.9001,-4.52633 -59.1661,-1.8592 -44.7952,7.82611 -81.4092,40.27274 -98.2195,87.04043 -2.4312,6.76302 -3.1349,13.07385 -3.7036,33.20554 -0.8311,29.42246 0.7227,38.165 10.3828,58.41586 16.3825,34.34322 45.4331,59.23112 81.095,69.47489 8.0087,2.30051 13.8646,2.74515 33.1223,2.51506 23.1217,-0.2763 23.399,-0.31816 23.8651,-3.60306 z"
       id="path28" />
    <path
       style="fill:#333333;stroke-width:1.46209"
       d="m 2133.4993,1167.9781 -6.8646,-7.3387 V 827.72302 494.80678 l 3.8479,-5.04496 c 6.9417,-9.10092 7.7955,-9.21759 74.475,-10.17625 l 60.4253,-0.86874 5.1941,3.96178 c 8.025,6.12099 9.6273,10.70383 11.2174,32.08523 0.787,10.58389 1.7172,20.09421 2.067,21.13409 0.9585,2.84959 5.1915,0.10613 17.6275,-11.42473 44.5513,-41.30851 84.7809,-55.99672 146.8062,-53.60034 48.6697,1.8804 82.208,12.38207 112.7513,35.30511 24.8002,18.61287 42.6624,40.80559 57.7024,71.69207 10.8804,22.34364 15.5207,35.99742 20.3735,59.94582 5.1993,25.65775 6.5288,45.62281 6.543,98.25086 0.024,61.3302 -3.2908,87.7148 -15.6316,124.7182 -10.3354,30.9902 -25.1749,56.2916 -45.764,78.0269 -37.2259,39.2987 -84.1965,58.0392 -145.4781,58.0432 -54.63,0 -88.7082,-13.274 -129.2808,-50.3704 -7.5764,-6.9273 -14.2502,-12.595 -14.8306,-12.595 -1.5127,0 -2.5887,35.2457 -4.1283,135.24368 -1.4943,97.0514 -1.4945,97.0542 -10.3976,102.2717 -4.9261,2.887 -7.6327,3.016 -72.4538,3.4554 l -67.3366,0.4566 z m 280.36,-300.65528 c 19.2703,-5.019 37.0763,-18.1584 46.5072,-34.3175 6.388,-10.9455 12.5094,-31.761 15.0627,-51.2197 3.0361,-23.1362 2.217,-91.03089 -1.2957,-107.41744 -9.0769,-42.34304 -29.7332,-67.83607 -60.5145,-74.68426 -8.4837,-1.8875 -15.7037,-2.27391 -32.3508,-1.73143 -25.2273,0.82207 -34.8094,3.6343 -50.477,14.81443 -16.1608,11.53214 -26.8556,29.05253 -34.1869,56.00592 -3.901,14.3417 -3.9083,14.46656 -3.9625,68.46538 l -0.054,54.0974 4.0314,12.8615 c 2.2174,7.0738 6.0309,16.8221 8.4745,21.6629 6.7915,13.454 26.9733,32.3695 40.1242,37.6072 15.1428,6.0306 52.2819,8.1169 68.6417,3.8556 z"
       id="path29" />
    <path
       style="fill:#333333;stroke-width:0.516928"
       d="m 1562.3947,544.47382 c -12.4658,-1.44645 -27.7106,-7.47679 -37.5334,-14.84717 -11.2762,-8.46075 -22.745,-22.21425 -22.745,-27.27617 0,-1.8906 1.8436,-4.16218 3.7705,-4.64579 3.1323,-0.78617 4.0028,-0.22099 9.1832,5.96414 15.5019,18.50848 30.6205,27.57513 47.01,28.19232 l 4.9109,0.1849 -4.3939,-0.49327 c -17.8072,-1.99903 -33.5673,-11.4415 -45.7548,-27.41343 -5.1858,-6.79626 -6.5113,-7.85229 -9.5188,-7.58449 -1.3003,0.1158 -2.829,0.38753 -3.3977,0.60392 -0.8891,0.33832 -0.8629,0.24254 0.1864,-0.6837 1.6077,-1.41901 4.8198,-1.42191 7.1101,-0.007 0.9528,0.58887 3.1783,3.08952 4.9455,5.55696 6.7115,9.37109 17.6044,18.54452 27.3879,23.06479 9.8964,4.57244 18.0143,6.22211 28.6046,5.81289 10.292,-0.39769 17.3962,-2.26063 28.3197,-7.42618 7.2932,-3.44886 9.7014,-3.87287 12.2066,-2.14917 3.1271,2.15162 4.5651,6.51941 3.0894,9.38433 -0.7896,1.53316 -2.5828,3.45528 -3.2238,3.45528 -0.2878,0 0.073,-0.63969 0.8023,-1.42156 2.8448,-3.05006 3.1203,-4.90095 1.2137,-8.15452 -1.5106,-2.57754 -3.6024,-3.6144 -6.2785,-3.11233 -1.0354,0.1941 -5.0519,1.76054 -8.9257,3.48077 -3.874,1.72023 -8.2101,3.53386 -9.6358,4.03027 -2.404,0.837 -9.9946,2.32695 -14.208,2.78886 -0.995,0.10896 0.3165,0.1066 2.9146,-0.005 6.3104,-0.27195 11.1745,-1.59188 20.5389,-5.57326 9.8721,-4.19734 11.0136,-4.43109 13.0931,-2.68138 5.0578,4.25593 2.6941,8.41825 -7.3908,13.01402 -8.8634,4.0393 -20.0181,6.99578 -30.0926,7.97599 -5.6693,0.5516 -7.1679,0.54726 -12.1886,-0.0354 z"
       id="path31" />
    <path
       style="fill:#00aad4;stroke-width:0.516928"
       d="m 1548.4133,610.90261 c -18.1103,-2.43426 -32.8859,-6.96413 -49.6569,-15.22366 -30.8428,-15.18988 -52.9795,-36.62364 -68.483,-66.30817 -7.8682,-15.06522 -12.3094,-27.99284 -15.8448,-46.12062 -1.3616,-6.98158 -1.4125,-7.85724 -1.4467,-24.81254 -0.04,-19.45867 0.2396,-22.23769 3.6104,-35.96555 10.8863,-44.33513 39.3982,-80.76585 79.1787,-101.16944 16.2814,-8.35078 32.8148,-13.50107 52.0935,-16.2275 6.1851,-0.87472 30.5169,-0.87472 36.7018,0 25.1353,3.55466 46.165,11.37204 66.0647,24.55846 9.158,6.06845 14.5037,10.35629 21.9954,17.64292 22.161,21.55406 35.5638,44.83022 42.9638,74.61282 2.504,10.07816 3.0908,14.19239 3.7071,25.9849 0.6922,13.24661 0,29.16126 -1.6033,37.31753 -11.158,56.46368 -49.9355,101.01906 -103.1457,118.51521 -8.1783,2.6891 -20.6707,5.61418 -28.6896,6.71762 -8.5917,1.18226 -30.1574,1.45757 -37.4454,0.47802 z m 37.5235,-65.29601 c 11.1938,-2.29671 25.3801,-8.39216 29.0907,-12.49939 1.6088,-1.78071 1.847,-2.38375 1.847,-4.67846 0,-3.15088 -1.1019,-5.68085 -3.268,-7.50342 -1.3915,-1.17098 -1.9568,-1.31379 -4.4613,-1.12697 -1.8219,0.13584 -4.4702,0.92523 -7.2617,2.16435 -13.9608,6.19729 -21.3721,8.06944 -31.9445,8.06944 -3.9012,0 -8.4799,-0.33559 -10.9363,-0.80156 -15.5358,-2.94711 -29.5789,-12.07395 -41.4423,-26.93405 -2.5913,-3.246 -5.3703,-6.24241 -6.1752,-6.65866 -0.805,-0.41627 -2.6628,-0.75683 -4.1286,-0.75683 -2.1703,0 -3.0221,0.28259 -4.5865,1.52162 -1.0566,0.83691 -2.3547,2.4832 -2.8847,3.65846 -0.8464,1.87725 -0.8858,2.43025 -0.3238,4.55227 0.8531,3.2203 3.4953,7.15227 9.1165,13.56663 13.3811,15.26918 29.4379,24.69703 47.8156,28.07532 6.1965,1.13903 22.5837,0.77917 29.5431,-0.64875 z m 64.2795,-57.92412 c 13.6363,-4.96868 23.2698,-12.20574 31.4516,-23.62799 6.3332,-8.84127 9.5962,-21.83979 8.9844,-35.79072 -0.7531,-17.17606 -10.095,-33.82787 -24.3891,-43.47341 -4.7801,-3.2256 -13.2162,-7.33406 -17.5978,-8.5703 -3.9693,-1.12 -21.6186,-1.64094 -27.049,-0.79842 -10.4561,1.62235 -22.1532,8.26146 -31.8393,18.07155 l -4.0941,4.14643 -1.6339,-5.01055 c -6.7328,-20.64419 -22.0139,-36.37008 -42.215,-43.44403 -7.5872,-2.65687 -11.2502,-3.17963 -22.2497,-3.17532 -14.536,0.005 -19.0594,0.99724 -30.0515,6.5877 -16.279,8.27931 -28.104,21.95007 -34.0933,39.41497 -2.2142,6.45642 -2.5481,9.77332 -2.3012,22.84894 0.2528,13.38541 0.5818,15.181 4.4078,24.05076 4.1882,9.71004 9.6726,17.07025 18.7735,25.19497 7.0802,6.32069 17.0282,11.55077 26.6152,13.99281 9.4653,2.41103 25.7759,2.15058 35.1568,-0.56134 12.8219,-3.70666 26.0166,-12.5511 34.6515,-23.22708 2.0653,-2.55372 3.9785,-4.71746 4.2512,-4.80836 0.2726,-0.0908 0.7825,0.71913 1.1335,1.8 0.3507,1.08089 1.6306,3.94251 2.8441,6.35915 6.84,13.6219 18.2678,24.03286 31.8532,29.01897 7.5002,2.75275 9.4707,3.01219 21.6247,2.84728 11.0997,-0.1507 11.12,-0.15306 15.7664,-1.84601 z"
       id="path32" />
    <path
       style="fill:#00aad4;stroke-width:0.516928"
       d="m 1548.123,610.62535 c -33.7697,-4.3556 -69.1934,-22.0251 -92.2716,-46.02531 -20.7566,-21.58583 -34.083,-47.55552 -40.9495,-79.79908 -1.4179,-6.65885 -1.4308,-6.8967 -1.4349,-26.10488 0,-20.90128 0.1864,-23.15813 2.8882,-34.24536 3.2031,-13.14242 7.1889,-24.20055 12.6465,-35.08547 20.4296,-40.74575 56.3536,-69.43149 100.8162,-80.50336 14.5023,-3.61129 17.4245,-3.92676 36.3975,-3.92959 15.7993,-0.002 17.8834,0.10071 23.7787,1.17613 23.6787,4.31932 42.2287,11.65857 61.0857,24.16834 8.8419,5.86572 13.4674,9.60266 21.0282,16.98837 19.3273,18.87976 31.328,37.53609 39.2579,61.03048 6.3686,18.86811 8.242,32.45366 7.6986,55.82821 -0.3215,13.83588 -0.9168,18.89397 -3.4066,28.94798 -13.7561,55.54846 -54.9131,98.05676 -109.1221,112.70461 -9.6219,2.6 -18.5792,4.27711 -26.0506,4.87763 -7.7302,0.62132 -27.4582,0.60382 -32.3622,-0.0288 z m 37.5096,-64.76646 c 11.7009,-2.39466 25.3938,-8.32285 29.3572,-12.70982 1.691,-1.87172 1.8847,-2.38065 1.8847,-4.95333 0,-3.22811 -0.7408,-4.97683 -3.0305,-7.15338 -1.4768,-1.40393 -1.7688,-1.47785 -4.8278,-1.22176 -2.396,0.2007 -5.2441,1.10365 -10.7846,3.41958 -9.3365,3.90254 -16.121,5.74003 -23.0084,6.23164 -22.7054,1.62058 -39.9652,-6.51314 -57.168,-26.94032 -2.8014,-3.32648 -5.6083,-6.40866 -6.2373,-6.8493 -0.7365,-0.51589 -2.2929,-0.80115 -4.3707,-0.80115 -2.8823,0 -3.4252,0.17382 -5.0807,1.62752 -3.5933,3.15492 -4.1933,6.1229 -2.1271,10.52027 1.6847,3.58478 5.408,8.38281 11.154,14.37328 13.7398,14.32451 27.5094,21.74954 47.0683,25.38071 2.7731,0.51485 23.6011,-0.1934 27.1709,-0.92394 z m 66.3929,-58.61037 c 18.4863,-7.3945 31.7452,-21.01819 36.3966,-37.39809 4.2573,-14.99168 2.9665,-30.88413 -3.5639,-43.88098 -4.2226,-8.40377 -11.4058,-16.67693 -18.6129,-21.43722 -4.2597,-2.81349 -12.2429,-6.78317 -16.2875,-8.09897 -4.7219,-1.53619 -25.2107,-2.03714 -30.6864,-0.75028 -10.1233,2.37917 -19.4342,7.92036 -29.9032,17.79646 -1.9437,1.83337 -3.6059,3.24192 -3.6941,3.13011 -0.087,-0.11179 -0.9168,-2.40018 -1.8413,-5.08527 -5.942,-17.25941 -18.1044,-31.25377 -33.9006,-39.00665 -6.1007,-2.99424 -12.0945,-5.09572 -17.0242,-5.96866 -3.9547,-0.70031 -22.8151,-0.69729 -27.1393,0.005 -10.0646,1.63299 -23.4387,8.76198 -32.5929,17.37373 -9.7311,9.15426 -17.6414,23.21787 -19.6787,34.9856 -0.4094,2.36572 -0.5354,7.76773 -0.3797,16.28323 0.2311,12.69329 0.2394,12.76194 1.8832,17.58988 7.7286,22.69971 25.7799,39.74731 48.2084,45.52781 9.1309,2.35334 25.8844,1.95884 35.5839,-0.83792 12.3235,-3.55339 25.7749,-12.77324 34.8892,-23.91366 1.6441,-2.0095 3.1373,-3.64834 3.3182,-3.64185 0.1816,0.007 1.2184,2.08506 2.3054,4.61906 3.8712,9.02425 11.3351,18.62912 18.9224,24.34948 5.7605,4.34329 14.6626,8.49684 22.0063,10.26766 1.1372,0.27422 7.5344,0.44566 14.2155,0.38094 l 12.1478,-0.11768 z"
       id="path33" />
    <path
       style="fill:#00aad4;stroke-width:0.516928"
       d="m 1616.7388,463.07843 c -8.4495,-3.10251 -14.7027,-8.50903 -18.6162,-16.09533 l -2.4422,-4.73447 v -8.0724 -8.07241 l 1.8797,-3.73482 c 3.5691,-7.0913 8.1936,-11.88452 14.524,-15.0538 7.5788,-3.79437 17.4915,-4.01088 25.6844,-0.56101 l 2.0262,0.8532 -2.0262,0.91267 c -2.6059,1.17372 -6.3111,4.88366 -7.5203,7.52948 -1.1533,2.52369 -1.2724,7.83306 -0.2311,10.32395 0.992,2.37412 4.7186,6.33706 7.1033,7.55364 2.4474,1.24858 8.3952,1.34848 11.1735,0.18773 1.0564,-0.44141 3.0262,-1.73466 4.3771,-2.87386 l 2.4566,-2.07129 v 3.26157 c -0.026,8.08906 -1.9141,13.9164 -6.4787,19.98862 -3.6663,4.87725 -9.3738,8.73448 -15.7035,10.61247 -3.5483,1.0528 -13.3778,1.0808 -16.1957,0.046 z"
       id="path34" />
    <path
       style="fill:#00aad4;stroke-width:0.516928"
       d="m 1388.9791,502.1107 c -28.811,-11.1786 -51.0597,-28.59572 -67.1844,-52.59447 -11.9,-17.71117 -20.3238,-40.70679 -22.2816,-60.82442 -0.7047,-7.24191 -0.7075,-24.2078 0,-30.68781 0.8132,-7.50443 3.3026,-19.2818 5.4316,-25.69678 3.7069,-11.17006 10.8222,-25.71328 17.5771,-35.9265 18.2226,-27.55223 50.5956,-49.4819 83.4514,-56.53035 16.1308,-3.46051 37.3162,-3.88706 53.8079,-1.08337 20.6214,3.50579 43.2145,13.77038 60.4333,27.45629 5.378,4.2747 19.8034,18.34261 19.2608,18.78348 -0.217,0.17547 -3.8823,1.07844 -8.1469,2.00634 -26.8026,5.83158 -50.231,16.3832 -70.8192,31.89514 -6.9563,5.24126 -23.8483,21.83913 -31.1018,30.56033 -3.4191,4.11098 -10.212,14.22857 -14.1487,21.07421 -11.1201,19.33543 -19.0979,42.15895 -21.9599,62.82384 -1.1406,8.23458 -1.5707,28.41544 -0.8104,38.01399 0.7331,9.25568 2.2349,19.62921 3.9552,27.31763 1.3885,6.20548 1.4316,6.52741 0.8712,6.50772 -0.2122,-0.007 -3.9617,-1.40037 -8.3301,-3.09527 z"
       id="path35" />
    <path
       style="fill:#00aad4;stroke-width:0.516928"
       d="m 1277.5113,476.73363 c -5.7169,-0.82175 -18.0273,-4.14252 -25.0711,-6.76303 -11.5795,-4.30798 -21.3693,-9.74921 -31.791,-17.66938 -5.4834,-4.16725 -16.4903,-14.93646 -21.1968,-20.73937 -13.6434,-16.82096 -22.0934,-36.23647 -26.212,-60.22657 -0.4356,-2.53827 -0.6573,-8.69627 -0.6415,-17.83402 0.024,-13.19435 0.1014,-14.32428 1.4432,-20.67711 5.7565,-27.25742 16.5362,-47.57335 34.9704,-65.90832 18.436,-18.33664 40.4364,-29.39545 68.4988,-34.43188 6.3528,-1.14016 26.2341,-1.31608 33.8586,-0.29959 9.9632,1.32827 21.0663,4.29055 31.4035,8.37853 4.2313,1.67335 4.9264,2.20969 3.549,2.7383 -1.7294,0.66358 -14.6028,11.53227 -20.9294,17.66999 -11.9457,11.58907 -20.1884,22.4372 -27.8867,36.70187 -9.4429,17.49688 -14.8181,33.27957 -17.782,52.20973 -0.9835,6.283 -1.1361,9.38344 -1.1561,23.52021 -0.024,10.92013 0.2051,17.90068 0.6681,21.19404 3.8217,27.15145 14.5379,52.43869 32.4466,76.56475 1.8182,2.44933 3.3057,4.68371 3.3057,4.96529 0,0.2816 -1.5703,0.66028 -3.4894,0.84153 -4.9818,0.47052 -30.2973,0.2955 -33.9879,-0.2349 z"
       id="path36" />
    <path
       style="fill:#00aad4;stroke-width:0.516928"
       d="m 1144.7381,489.4405 c -21.102,-4.0086 -41.4715,-13.1476 -56.6809,-25.43035 -5.3189,-4.29537 -12.346,-11.37294 -16.8245,-16.94493 -10.9434,-13.61559 -19.5801,-31.6354 -23.8301,-49.71957 -1.3727,-5.8396 -1.4441,-6.80167 -1.6253,-21.84344 -0.2146,-17.91089 0.1203,-21.05961 3.5547,-33.20882 6.0139,-21.27961 15.3717,-36.71831 32.0752,-52.91819 16.0933,-15.6084 32.0124,-24.36682 55.1163,-30.32418 l 6.5866,-1.69834 18.8678,10e-4 c 13.763,10e-4 19.6719,0.18585 21.8401,0.68283 1.6349,0.37479 2.9724,0.80127 2.9724,0.94774 0,0.14646 -2.3736,3.49131 -5.2745,7.43295 -13.33,18.11162 -21.2783,35.03213 -26.9445,57.36034 l -1.6399,6.46161 v 24.29561 24.29561 l 1.7238,6.72005 c 7.4042,28.86591 19.5434,50.9744 38.5966,70.29479 7.1295,7.2293 12.8257,12.06844 20.1325,17.10354 l 5.1417,3.54296 -3.074,1.4183 c -10.9731,5.06314 -24.4271,9.43174 -34.0895,11.06919 -6.9349,1.17528 -31.253,1.48131 -36.6245,0.46094 z"
       id="path37" />
    <path
       style="fill:#00aad4;stroke-width:0.516928"
       d="m 1037.0017,557.8922 c -13.3889,-1.55693 -30.2372,-7.34457 -43.52986,-14.9529 -25.74073,-14.73345 -45.01779,-40.08193 -52.66541,-69.25229 -2.95518,-11.27155 -3.40919,-15.12446 -3.38089,-28.68952 0.0236,-10.4644 0.20283,-13.3772 1.15967,-18.6094 2.9724,-16.26127 8.73205,-30.71135 17.43014,-43.73025 16.43155,-24.59351 38.70059,-40.18622 68.59505,-48.02978 2.4913,-0.65363 4.6597,-1.05804 4.8191,-0.89872 0.158,0.15919 -0.3148,2.79829 -1.0538,5.86441 -2.5716,10.67146 -2.9643,14.24524 -3.2422,29.51609 -0.2823,15.50953 0.1698,22.7821 1.9823,31.9488 2.0816,10.52259 5.9366,21.54663 11.5686,33.08337 19.0759,39.0746 54.8357,66.30567 98.2405,74.81001 3.2597,0.63868 5.9267,1.40653 5.9267,1.70639 0,0.97858 -6.858,9.18483 -11.7375,14.04514 -18.4603,18.38754 -41.1036,29.48532 -67.3526,33.01049 -5.8941,0.79158 -20.6405,0.88974 -26.7598,0.17807 z"
       id="path38" />
    <path
       style="fill:#00aad4;stroke-width:0.516928"
       d="m 964.7698,678.57401 c -2.54645,-0.45424 -4.38371,-1.06639 -4.78159,-1.59327 -0.38514,-0.50998 -0.64599,-2.44202 -0.64599,-4.783 0,-4.1382 -1.01815,-17.24835 -2.34928,-30.25072 -5.58819,-54.58816 -23.72729,-95.7473 -57.1937,-129.77687 l -5.11131,-5.19725 3.4908,-4.10744 c 7.27238,-8.55724 21.95111,-21.67987 22.94097,-20.5089 0.17452,0.20707 1.09056,2.58655 2.03419,5.2875 3.66768,10.49754 9.70752,22.64215 15.93887,32.04953 6.72427,10.15127 17.59452,22.09715 26.9702,29.63857 15.69075,12.62112 36.35014,22.57453 55.86724,26.91605 8.605,1.91415 14.0432,2.35738 28.9082,2.3561 14.5698,-0.001 19.903,-0.52148 31.1693,-3.04044 9.2509,-2.06839 9.1523,-2.07211 9.1455,0.34561 0,3.03735 -1.9149,14.63869 -3.3972,20.67284 -6.7082,27.31094 -22.8106,50.22143 -45.9638,65.39799 -5.6639,3.71249 -17.4863,9.56 -23.7051,11.72483 -6.1115,2.12749 -13.7684,4.03718 -19.88131,4.95864 -6.65706,1.00348 -27.62233,0.94721 -33.43599,-0.0899 z"
       id="path39" />
    <path
       style="fill:#00aad4;stroke-width:0.516928"
       d="m 960.78184,778.54532 c -0.78514,-1.3745 -1.25636,-50.9815 -0.65118,-68.5404 l 0.3625,-10.5151 6.01532,0.43503 c 8.62096,0.62348 25.2603,0.47728 31.6032,-0.27769 2.98542,-0.35531 8.91692,-1.32799 13.18182,-2.16151 4.2646,-0.83351 8.3936,-1.51641 9.1754,-1.51756 1.3996,-0.002 1.4215,0.0476 1.4184,3.22872 0,3.5372 -1.0891,11.51191 -2.3403,17.18781 -2.6507,12.0246 -9.0646,25.321 -16.9566,35.1511 -9.30842,11.5944 -22.38786,21.1697 -36.61636,26.8065 -4.18536,1.658 -4.3573,1.6649 -5.1922,0.2028 z"
       id="path40" />
    <path
       style="fill:#00222b;stroke-width:1.46209"
       d="m 2134.1755,1167.3267 -7.5408,-7.6356 V 827.98002 496.26887 l 3.8479,-5.04496 c 6.8971,-9.04257 9.0136,-9.38775 65.6014,-10.69921 76.9331,-1.78297 68.372,-2.25464 75.0845,4.13692 6.8917,6.5625 8.241,11.08685 10.308,34.56716 0.842,9.56316 1.8729,17.72983 2.2912,18.14813 1.525,1.5249 7.6191,-2.62315 19.7802,-13.4634 33.5473,-29.90378 61.6776,-44.24659 98.0921,-50.0141 20.4019,-3.23131 67.0949,-2.09688 87.6455,2.12938 29.008,5.96541 49.906,15.16852 71.7781,31.60941 45.3603,34.09676 74.5897,91.62572 81.7665,160.93188 2.5212,24.34781 1.0698,128.92254 -2.0285,146.15904 -9.8146,54.5989 -29.5431,95.3811 -61.5482,127.232 -37.2598,37.0798 -79.8754,53.439 -139.7309,53.6394 -54.7885,0.184 -87.5491,-12.3377 -128.664,-49.1765 -7.6396,-6.8448 -14.6219,-12.4653 -15.5165,-12.4898 -2.5554,-0.071 -3.3561,17.4249 -4.916,107.41928 -2.0679,119.3005 -2.4111,123.8583 -9.6903,128.6279 -4.8012,3.146 -11.0453,3.4745 -81.8625,4.3082 l -57.1569,0.6729 z m 282.0536,-300.12528 c 25.553,-7.5816 43.3388,-24.7617 51.6466,-49.8874 7.6111,-23.0183 8.4186,-29.4275 9.2271,-73.2325 0.4927,-26.7077 0.158,-47.20841 -0.9418,-57.75265 -3.087,-29.58439 -13.6943,-54.02212 -30.3388,-69.89594 -15.7525,-15.02343 -27.548,-18.83709 -58.1456,-18.79924 -33.3489,0.0413 -46.9119,4.39246 -64.3316,20.63871 -11.2391,10.48183 -18.0502,22.05795 -25.0912,42.64461 l -5.6007,16.37536 -0.5179,57.23855 -0.5179,57.2386 4.6801,13.6729 c 6.6229,19.3485 10.3858,26.1188 20.5672,37.0024 21.0344,22.4861 31.9015,26.6181 70.8538,26.9419 15.0733,0.125 22.6914,-0.4587 28.5107,-2.1853 z"
       id="path42" />
    <path
       style="fill:#00222b;stroke-width:1.46209"
       d="m 3116.0761,980.25482 -6.975,-6.1575 -1.4872,-97.2292 c -0.8182,-53.476 -1.988,-124.8628 -2.6,-158.6371 l -1.1125,-61.40796 -7.2394,-13.88958 c -8.4028,-16.12231 -22.7188,-31.63787 -35.7499,-38.74575 l -8.0417,-4.38629 -36.0091,-0.47627 -36.0091,-0.47627 -9.3157,4.68477 c -6.4583,3.24777 -13.3979,8.77559 -22.6238,18.02136 -10.9332,10.95686 -14.4554,15.66434 -19.7382,26.38134 l -6.4304,13.04468 -0.9415,62.98417 c -0.5181,34.6412 -1.0115,104.4592 -1.0967,155.151 l -0.1556,92.1667 -6.9953,6.8901 -6.9952,6.8898 h -70.1913 -70.1913 l -6.4991,-6.6219 -6.499,-6.6221 0.3604,-205.0159 c 0.1981,-112.75872 0.7799,-263.09923 1.2929,-334.09001 l 0.9325,-129.07412 6.7295,-5.51145 6.7292,-5.51147 59.9458,1.1229 c 70.0482,1.31212 79.9286,1.95471 84.2842,5.48168 2.8953,2.34462 3.2486,4.47593 4.2802,25.82825 0.6186,12.80001 1.8394,59.45956 2.7127,103.68788 1.7684,89.53661 2.5738,107.46383 4.8276,107.46383 0.8398,0 7.5224,-4.74353 14.8502,-10.54115 30.7586,-24.3362 47.7105,-34.58068 69.4731,-41.98466 64.1652,-21.83001 141.1357,-11.43846 186.5572,25.18662 14.6481,11.81121 33.4582,31.32615 41.2016,42.74555 11.2231,16.5509 20.0905,37.03428 30.3867,70.19114 l 6.3764,20.53437 -1.0385,167.18694 -1.0386,167.1868 -5.7779,4.8877 -5.7775,4.8877 -68.7185,-0.035 -68.7184,-0.035 z"
       id="path43" />
    <path
       style="fill:#00222b;stroke-width:0.516928"
       d="m 1559.2369,543.75307 c -11.7776,-2.1474 -23.8655,-7.13387 -33.2159,-13.70222 -7.2934,-5.12334 -17.5177,-15.79774 -21.5578,-22.50694 -2.8731,-4.77142 -2.3205,-8.29047 1.5,-9.55139 2.6328,-0.86881 3.8901,0.0307 10.2356,7.3226 9.3462,10.73997 17.1898,17.15941 26.4964,21.68501 6.6696,3.24319 11.9943,4.60965 18.8679,4.84189 3.6997,0.125 4.6872,0.0554 3.1016,-0.21863 -1.6547,-0.28601 -0.1627,-0.41398 5.1693,-0.44337 5.0672,-0.0278 7.1604,0.11722 6.4616,0.44769 -1.7941,0.84853 7.0731,0.0212 11.1907,-1.04323 2.0901,-0.54068 7.2894,-2.4045 11.554,-4.14183 4.2649,-1.7373 8.6207,-3.29754 9.6802,-3.46718 1.7101,-0.27387 2.1302,-0.10425 3.7476,1.5132 3.5783,3.57827 1.7689,6.84071 -5.9448,10.7191 -14.4537,7.26722 -34.4636,10.88329 -47.2864,8.54535 z"
       id="path44" />
    <path
       style="fill:#00222b;stroke-width:0.516928"
       d="m 1521.2309,444.07438 c -9.041,-3.27426 -16.9924,-11.33157 -19.6391,-19.90039 -1.2302,-3.98324 -1.383,-11.90715 -0.3076,-15.94641 2.371,-8.9041 11.3295,-18.0686 20.4382,-20.90793 5.9304,-1.84861 14.5764,-1.33632 20.8091,1.23299 l 1.7146,0.70674 -2.103,1.08061 c -4.7104,2.42042 -8.0208,7.80578 -8.0462,13.08935 -0.057,11.7814 13.6431,17.5869 23.5926,9.99801 l 1.8059,-1.37747 v 3.5506 c -0.026,10.33603 -4.7163,19.01013 -13.3165,24.6284 -6.0346,3.94208 -8.3207,4.66828 -15.3641,4.88012 -5.5063,0.16557 -6.5818,0.0493 -9.575,-1.03462 z"
       id="path45" />
    <path
       style="fill:#00222b;stroke-width:0.516928"
       d="m 1616.7388,463.07843 c -8.4495,-3.10251 -14.7027,-8.50903 -18.6162,-16.09533 l -2.4422,-4.73447 v -8.0724 -8.07241 l 1.8797,-3.73482 c 4.5467,-9.03337 10.9759,-14.54774 20.0302,-17.17988 5.6214,-1.63421 14.2565,-0.96915 20.3221,1.56516 l 1.9068,0.79675 -2.1302,1.05386 c -2.5644,1.26879 -6.6358,5.49531 -7.6639,7.95592 -1.949,4.66466 -0.3894,10.86407 3.734,14.8421 2.6799,2.58539 5.1382,3.5145 9.2988,3.5145 3.9931,0 6.5033,-1.00255 9.9969,-3.99287 l 2.2431,-1.92023 -0.3302,5.77395 c -0.3743,6.54049 -1.3389,9.84645 -4.2912,14.70658 -3.8592,6.35286 -10.5007,11.42706 -17.7419,13.55534 -3.554,1.04457 -13.3918,1.0678 -16.1958,0.0382 z"
       id="path46" />
  </g>
</svg>
